<svg width="78" height="34" viewBox="0 0 78 34" fill="none" xmlns="http://www.w3.org/2000/svg">
<path d="M11.0987 7.63636C11.0987 8.58807 10.9183 9.39773 10.5575 10.0653C10.1996 10.733 9.71094 11.2429 9.09162 11.5952C8.47514 11.9446 7.78196 12.1193 7.01207 12.1193C6.23651 12.1193 5.54048 11.9432 4.92401 11.5909C4.30753 11.2386 3.82031 10.7287 3.46236 10.0611C3.1044 9.39347 2.92543 8.58523 2.92543 7.63636C2.92543 6.68466 3.1044 5.875 3.46236 5.20739C3.82031 4.53977 4.30753 4.03125 4.92401 3.68182C5.54048 3.32955 6.23651 3.15341 7.01207 3.15341C7.78196 3.15341 8.47514 3.32955 9.09162 3.68182C9.71094 4.03125 10.1996 4.53977 10.5575 5.20739C10.9183 5.875 11.0987 6.68466 11.0987 7.63636ZM9.22798 7.63636C9.22798 7.01989 9.13565 6.5 8.95099 6.0767C8.76918 5.65341 8.51207 5.33239 8.17969 5.11364C7.8473 4.89489 7.4581 4.78551 7.01207 4.78551C6.56605 4.78551 6.17685 4.89489 5.84446 5.11364C5.51207 5.33239 5.25355 5.65341 5.06889 6.0767C4.88707 6.5 4.79616 7.01989 4.79616 7.63636C4.79616 8.25284 4.88707 8.77273 5.06889 9.19602C5.25355 9.61932 5.51207 9.94034 5.84446 10.1591C6.17685 10.3778 6.56605 10.4872 7.01207 10.4872C7.4581 10.4872 7.8473 10.3778 8.17969 10.1591C8.51207 9.94034 8.76918 9.61932 8.95099 9.19602C9.13565 8.77273 9.22798 8.25284 9.22798 7.63636ZM16.1999 5.78267C16.1658 5.43892 16.0195 5.17187 15.761 4.98153C15.5025 4.79119 15.1516 4.69602 14.7085 4.69602C14.4073 4.69602 14.1531 4.73864 13.9457 4.82386C13.7383 4.90625 13.5792 5.02131 13.4684 5.16903C13.3604 5.31676 13.3065 5.48438 13.3065 5.67188C13.3008 5.82812 13.3335 5.96449 13.4045 6.08097C13.4783 6.19744 13.5792 6.2983 13.707 6.38352C13.8349 6.46591 13.9826 6.53835 14.1502 6.60085C14.3178 6.66051 14.4968 6.71165 14.6871 6.75426L15.4712 6.94176C15.8519 7.02699 16.2013 7.14062 16.5195 7.28267C16.8377 7.42472 17.1133 7.59943 17.3462 7.80682C17.5792 8.0142 17.7596 8.25852 17.8874 8.53977C18.0181 8.82102 18.0849 9.14347 18.0877 9.5071C18.0849 10.0412 17.9485 10.5043 17.6786 10.8963C17.4116 11.2855 17.0252 11.5881 16.5195 11.804C16.0167 12.017 15.4102 12.1236 14.6999 12.1236C13.9954 12.1236 13.3817 12.0156 12.859 11.7997C12.3391 11.5838 11.9329 11.2642 11.6403 10.8409C11.3505 10.4148 11.1985 9.88778 11.1843 9.25994H12.9698C12.9897 9.55256 13.0735 9.79687 13.2212 9.9929C13.3718 10.1861 13.5721 10.3324 13.8221 10.4318C14.0749 10.5284 14.3604 10.5767 14.6786 10.5767C14.9911 10.5767 15.2624 10.5312 15.4925 10.4403C15.7255 10.3494 15.9059 10.223 16.0337 10.0611C16.1616 9.89915 16.2255 9.71307 16.2255 9.50284C16.2255 9.30682 16.1673 9.14205 16.0508 9.00852C15.9371 8.875 15.7695 8.76136 15.5479 8.66761C15.3292 8.57386 15.0607 8.48864 14.7425 8.41193L13.7923 8.1733C13.0565 7.99432 12.4755 7.71449 12.0494 7.33381C11.6232 6.95312 11.4116 6.44034 11.4144 5.79545C11.4116 5.26705 11.5522 4.8054 11.8363 4.41051C12.1232 4.01562 12.5167 3.70739 13.0167 3.4858C13.5167 3.2642 14.0849 3.15341 14.7212 3.15341C15.369 3.15341 15.9343 3.2642 16.4173 3.4858C16.9031 3.70739 17.2809 4.01562 17.5508 4.41051C17.8207 4.8054 17.9599 5.26278 17.9684 5.78267H16.1999ZM18.3288 3.27273H20.6044L23.0078 9.13636H23.1101L25.5135 3.27273H27.7891V12H25.9993V6.3196H25.9268L23.6683 11.9574H22.4496L20.1911 6.2983H20.1186V12H18.3288V3.27273ZM29.8136 12H27.8363L30.8491 3.27273H33.2269L36.2354 12H34.2582L32.0721 5.26705H32.0039L29.8136 12ZM29.69 8.5696H34.3604V10.0099H29.69V8.5696ZM43.5856 3.27273V12H41.9918L38.195 6.5071H38.131V12H36.2859V3.27273H37.9052L41.6722 8.76136H41.7489V3.27273H43.5856ZM45.8874 12V3.27273H51.7681V4.79403H47.7326V6.87358H51.4656V8.39489H47.7326V10.4787H51.7852V12H45.8874ZM52.2351 3.27273H54.5107L56.9141 9.13636H57.0163L59.4197 3.27273H61.6953V12H59.9055V6.3196H59.8331L57.5746 11.9574H56.3558L54.0973 6.2983H54.0249V12H52.2351V3.27273ZM62.2156 12V3.27273H65.6587C66.3178 3.27273 66.8803 3.39062 67.3462 3.62642C67.815 3.85937 68.1715 4.19034 68.4158 4.61932C68.663 5.04545 68.7866 5.54687 68.7866 6.12358C68.7866 6.70312 68.6616 7.2017 68.4116 7.61932C68.1616 8.03409 67.7994 8.35227 67.3249 8.57386C66.8533 8.79545 66.2823 8.90625 65.6119 8.90625H63.3065V7.4233H65.3136C65.6658 7.4233 65.9585 7.375 66.1914 7.27841C66.4244 7.18182 66.5977 7.03693 66.7113 6.84375C66.8278 6.65057 66.886 6.41051 66.886 6.12358C66.886 5.83381 66.8278 5.58949 66.7113 5.39062C66.5977 5.19176 66.4229 5.04119 66.1871 4.93892C65.9542 4.83381 65.6602 4.78125 65.305 4.78125H64.0607V12H62.2156ZM66.9286 8.02841L69.0977 12H67.0607L64.9386 8.02841H66.9286ZM69.0906 12V3.27273H74.9712V4.79403H70.9357V6.87358H74.6687V8.39489H70.9357V10.4787H74.9883V12H69.0906ZM13.3267 18.0938C13.267 17.8864 13.1832 17.7031 13.0753 17.544C12.9673 17.3821 12.8352 17.2457 12.679 17.1349C12.5256 17.0213 12.3494 16.9347 12.1506 16.875C11.9545 16.8153 11.7372 16.7855 11.4986 16.7855C11.0526 16.7855 10.6605 16.8963 10.3224 17.1179C9.98722 17.3395 9.72585 17.6619 9.53835 18.0852C9.35085 18.5057 9.2571 19.0199 9.2571 19.6278C9.2571 20.2358 9.34943 20.7528 9.53409 21.179C9.71875 21.6051 9.98011 21.9304 10.3182 22.1548C10.6562 22.3764 11.0554 22.4872 11.5156 22.4872C11.9332 22.4872 12.2898 22.4134 12.5852 22.2656C12.8835 22.1151 13.1108 21.9034 13.267 21.6307C13.4261 21.358 13.5057 21.0355 13.5057 20.6634L13.8807 20.7188H11.6307V19.3295H15.2827V20.429C15.2827 21.196 15.1207 21.8551 14.7969 22.4062C14.473 22.9545 14.027 23.3778 13.4588 23.6761C12.8906 23.9716 12.2401 24.1193 11.5071 24.1193C10.6889 24.1193 9.97017 23.9389 9.35085 23.5781C8.73153 23.2145 8.24858 22.6989 7.90199 22.0312C7.55824 21.3608 7.38636 20.5653 7.38636 19.6449C7.38636 18.9375 7.48864 18.3068 7.69318 17.7528C7.90057 17.196 8.19034 16.7244 8.5625 16.3381C8.93466 15.9517 9.3679 15.6577 9.86222 15.456C10.3565 15.2543 10.892 15.1534 11.4688 15.1534C11.9631 15.1534 12.4233 15.2259 12.8494 15.3707C13.2756 15.5128 13.6534 15.7145 13.983 15.9759C14.3153 16.2372 14.5866 16.5483 14.7969 16.9091C15.0071 17.267 15.142 17.6619 15.2017 18.0938H13.3267ZM21.0593 15.2727H22.9045V20.9403C22.9045 21.5767 22.7525 22.1335 22.4485 22.6108C22.1474 23.0881 21.7255 23.4602 21.1829 23.7273C20.6403 23.9915 20.0082 24.1236 19.2866 24.1236C18.5621 24.1236 17.9286 23.9915 17.386 23.7273C16.8434 23.4602 16.4215 23.0881 16.1204 22.6108C15.8192 22.1335 15.6687 21.5767 15.6687 20.9403V15.2727H17.5138V20.7827C17.5138 21.1151 17.5863 21.4105 17.7312 21.669C17.8789 21.9276 18.0863 22.1307 18.3533 22.2784C18.6204 22.4261 18.9315 22.5 19.2866 22.5C19.6445 22.5 19.9556 22.4261 20.2198 22.2784C20.4869 22.1307 20.6928 21.9276 20.8377 21.669C20.9854 21.4105 21.0593 21.1151 21.0593 20.7827V15.2727ZM30.7223 15.2727V24H29.1286L25.3317 18.5071H25.2678V24H23.4226V15.2727H25.0419L28.8089 20.7614H28.8857V15.2727H30.7223ZM34.3406 24H31.2468V15.2727H34.3661C35.244 15.2727 35.9996 15.4474 36.6332 15.7969C37.2667 16.1435 37.7539 16.642 38.0948 17.2926C38.4386 17.9432 38.6104 18.7216 38.6104 19.6278C38.6104 20.5369 38.4386 21.3182 38.0948 21.9716C37.7539 22.625 37.2638 23.1264 36.6246 23.4759C35.9883 23.8253 35.2269 24 34.3406 24ZM33.092 22.419H34.2638C34.8093 22.419 35.2681 22.3224 35.6403 22.1293C36.0153 21.9332 36.2965 21.6307 36.484 21.2216C36.6744 20.8097 36.7695 20.2784 36.7695 19.6278C36.7695 18.983 36.6744 18.456 36.484 18.0469C36.2965 17.6378 36.0167 17.3366 35.6445 17.1435C35.2724 16.9503 34.8136 16.8537 34.2681 16.8537H33.092V22.419ZM46.9972 19.6364C46.9972 20.5881 46.8168 21.3977 46.456 22.0653C46.098 22.733 45.6094 23.2429 44.9901 23.5952C44.3736 23.9446 43.6804 24.1193 42.9105 24.1193C42.1349 24.1193 41.4389 23.9432 40.8224 23.5909C40.206 23.2386 39.7188 22.7287 39.3608 22.0611C39.0028 21.3935 38.8239 20.5852 38.8239 19.6364C38.8239 18.6847 39.0028 17.875 39.3608 17.2074C39.7188 16.5398 40.206 16.0312 40.8224 15.6818C41.4389 15.3295 42.1349 15.1534 42.9105 15.1534C43.6804 15.1534 44.3736 15.3295 44.9901 15.6818C45.6094 16.0312 46.098 16.5398 46.456 17.2074C46.8168 17.875 46.9972 18.6847 46.9972 19.6364ZM45.1264 19.6364C45.1264 19.0199 45.0341 18.5 44.8494 18.0767C44.6676 17.6534 44.4105 17.3324 44.0781 17.1136C43.7457 16.8949 43.3565 16.7855 42.9105 16.7855C42.4645 16.7855 42.0753 16.8949 41.7429 17.1136C41.4105 17.3324 41.152 17.6534 40.9673 18.0767C40.7855 18.5 40.6946 19.0199 40.6946 19.6364C40.6946 20.2528 40.7855 20.7727 40.9673 21.196C41.152 21.6193 41.4105 21.9403 41.7429 22.1591C42.0753 22.3778 42.4645 22.4872 42.9105 22.4872C43.3565 22.4872 43.7457 22.3778 44.0781 22.1591C44.4105 21.9403 44.6676 21.6193 44.8494 21.196C45.0341 20.7727 45.1264 20.2528 45.1264 19.6364ZM53.1509 18.0938C53.0913 17.8864 53.0075 17.7031 52.8995 17.544C52.7915 17.3821 52.6594 17.2457 52.5032 17.1349C52.3498 17.0213 52.1737 16.9347 51.9748 16.875C51.7788 16.8153 51.5614 16.7855 51.3228 16.7855C50.8768 16.7855 50.4847 16.8963 50.1467 17.1179C49.8114 17.3395 49.5501 17.6619 49.3626 18.0852C49.1751 18.5057 49.0813 19.0199 49.0813 19.6278C49.0813 20.2358 49.1737 20.7528 49.3583 21.179C49.543 21.6051 49.8043 21.9304 50.1424 22.1548C50.4805 22.3764 50.8796 22.4872 51.3398 22.4872C51.7575 22.4872 52.114 22.4134 52.4094 22.2656C52.7077 22.1151 52.935 21.9034 53.0913 21.6307C53.2504 21.358 53.3299 21.0355 53.3299 20.6634L53.7049 20.7188H51.4549V19.3295H55.1069V20.429C55.1069 21.196 54.945 21.8551 54.6211 22.4062C54.2972 22.9545 53.8512 23.3778 53.283 23.6761C52.7148 23.9716 52.0643 24.1193 51.3313 24.1193C50.5131 24.1193 49.7944 23.9389 49.1751 23.5781C48.5558 23.2145 48.0728 22.6989 47.7262 22.0312C47.3825 21.3608 47.2106 20.5653 47.2106 19.6449C47.2106 18.9375 47.3129 18.3068 47.5174 17.7528C47.7248 17.196 48.0146 16.7244 48.3867 16.3381C48.7589 15.9517 49.1921 15.6577 49.6864 15.456C50.1808 15.2543 50.7163 15.1534 51.293 15.1534C51.7873 15.1534 52.2475 15.2259 52.6737 15.3707C53.0998 15.5128 53.4776 15.7145 53.8072 15.9759C54.1396 16.2372 54.4109 16.5483 54.6211 16.9091C54.8313 17.267 54.9663 17.6619 55.0259 18.0938H53.1509ZM58.5866 24H55.4929V15.2727H58.6122C59.4901 15.2727 60.2457 15.4474 60.8793 15.7969C61.5128 16.1435 62 16.642 62.3409 17.2926C62.6847 17.9432 62.8565 18.7216 62.8565 19.6278C62.8565 20.5369 62.6847 21.3182 62.3409 21.9716C62 22.625 61.5099 23.1264 60.8707 23.4759C60.2344 23.8253 59.473 24 58.5866 24ZM57.3381 22.419H58.5099C59.0554 22.419 59.5142 22.3224 59.8864 22.1293C60.2614 21.9332 60.5426 21.6307 60.7301 21.2216C60.9205 20.8097 61.0156 20.2784 61.0156 19.6278C61.0156 18.983 60.9205 18.456 60.7301 18.0469C60.5426 17.6378 60.2628 17.3366 59.8906 17.1435C59.5185 16.9503 59.0597 16.8537 58.5142 16.8537H57.3381V22.419ZM68.614 15.2727H70.4592V20.9403C70.4592 21.5767 70.3072 22.1335 70.0032 22.6108C69.7021 23.0881 69.2802 23.4602 68.7376 23.7273C68.195 23.9915 67.5629 24.1236 66.8413 24.1236C66.1168 24.1236 65.4833 23.9915 64.9407 23.7273C64.3981 23.4602 63.9762 23.0881 63.6751 22.6108C63.3739 22.1335 63.2234 21.5767 63.2234 20.9403V15.2727H65.0685V20.7827C65.0685 21.1151 65.141 21.4105 65.2859 21.669C65.4336 21.9276 65.641 22.1307 65.908 22.2784C66.1751 22.4261 66.4862 22.5 66.8413 22.5C67.1992 22.5 67.5103 22.4261 67.7745 22.2784C68.0415 22.1307 68.2475 21.9276 68.3924 21.669C68.5401 21.4105 68.614 21.1151 68.614 20.7827V15.2727Z" fill="black"/>
<path d="M11.983 31V27.3636H14.087V27.6619H12.315V29.0309H13.9219V29.3292H12.315V31H11.983ZM14.7126 31V27.3636H15.8863C16.1443 27.3636 16.3598 27.4104 16.5326 27.5039C16.7066 27.5962 16.8374 27.7247 16.925 27.8892C17.0138 28.0526 17.0582 28.2402 17.0582 28.4521C17.0582 28.6639 17.0138 28.851 16.925 29.0131C16.8374 29.1753 16.7072 29.302 16.5344 29.3931C16.3616 29.4843 16.1473 29.5298 15.8916 29.5298H14.892V29.2262H15.8827C16.0721 29.2262 16.2296 29.1948 16.355 29.1321C16.4817 29.0694 16.5758 28.98 16.6374 28.864C16.7001 28.748 16.7315 28.6107 16.7315 28.4521C16.7315 28.2934 16.7001 28.1549 16.6374 28.0366C16.5746 27.917 16.4799 27.8247 16.3533 27.7596C16.2278 27.6945 16.0692 27.6619 15.8774 27.6619H15.0447V31H14.7126ZM16.316 29.3594L17.2109 31H16.8273L15.9413 29.3594H16.316ZM20.6481 29.1818C20.6481 29.5606 20.5806 29.8903 20.4457 30.1708C20.3108 30.4502 20.1249 30.6668 19.8882 30.8207C19.6526 30.9734 19.3815 31.0497 19.075 31.0497C18.7684 31.0497 18.4967 30.9734 18.26 30.8207C18.0244 30.6668 17.8392 30.4502 17.7042 30.1708C17.5705 29.8903 17.5036 29.5606 17.5036 29.1818C17.5036 28.803 17.5705 28.474 17.7042 28.1946C17.8392 27.9141 18.025 27.6974 18.2618 27.5447C18.4985 27.3909 18.7696 27.3139 19.075 27.3139C19.3815 27.3139 19.6526 27.3909 19.8882 27.5447C20.1249 27.6974 20.3108 27.9141 20.4457 28.1946C20.5806 28.474 20.6481 28.803 20.6481 29.1818ZM20.325 29.1818C20.325 28.8563 20.2705 28.5775 20.1616 28.3455C20.0527 28.1123 19.9042 27.9342 19.7159 27.8111C19.5277 27.688 19.3141 27.6264 19.075 27.6264C18.837 27.6264 18.624 27.688 18.4358 27.8111C18.2475 27.9342 18.0984 28.1117 17.9883 28.3438C17.8794 28.5758 17.825 28.8551 17.825 29.1818C17.825 29.5073 17.8794 29.7861 17.9883 30.0181C18.0972 30.2501 18.2458 30.4283 18.434 30.5526C18.6222 30.6757 18.8359 30.7372 19.075 30.7372C19.3141 30.7372 19.5277 30.6757 19.7159 30.5526C19.9053 30.4295 20.0545 30.2519 20.1634 30.0199C20.2723 29.7867 20.3261 29.5073 20.325 29.1818ZM24.0831 27.3636V31H23.76L21.6116 27.9549H21.5831V31H21.2511V27.3636H21.5725L23.728 30.4123H23.7564V27.3636H24.0831ZM24.6298 27.6619V27.3636H27.2665V27.6619H26.1142V31H25.7821V27.6619H24.6298ZM29.0203 31V27.3636H31.1296V27.6619H29.3523V29.0309H31.0178V29.3292H29.3523V30.7017H31.1651V31H29.0203ZM34.621 27.3636V31H34.2979L32.1494 27.9549H32.121V31H31.789V27.3636H32.1104L34.2659 30.4123H34.2943V27.3636H34.621ZM36.4532 31H35.3878V27.3636H36.5171C36.8639 27.3636 37.1604 27.4358 37.4067 27.5803C37.6541 27.7247 37.8434 27.9318 37.9748 28.2017C38.1062 28.4716 38.1719 28.7953 38.1719 29.1729C38.1719 29.5541 38.1045 29.8814 37.9695 30.1548C37.8358 30.4271 37.6404 30.636 37.3836 30.7816C37.1279 30.9272 36.8178 31 36.4532 31ZM35.7199 30.7017H36.4336C36.7461 30.7017 37.0077 30.6402 37.2184 30.517C37.4291 30.3939 37.5872 30.2182 37.6925 29.9897C37.7979 29.7612 37.8506 29.489 37.8506 29.1729C37.8494 28.8593 37.7973 28.5894 37.6943 28.3633C37.5925 28.1372 37.441 27.9638 37.2398 27.843C37.0397 27.7223 36.7923 27.6619 36.4976 27.6619H35.7199V30.7017ZM41.0483 31H39.983V27.3636H41.1122C41.459 27.3636 41.7556 27.4358 42.0018 27.5803C42.2492 27.7247 42.4386 27.9318 42.57 28.2017C42.7013 28.4716 42.767 28.7953 42.767 29.1729C42.767 29.5541 42.6996 29.8814 42.5646 30.1548C42.4309 30.4271 42.2356 30.636 41.9787 30.7816C41.723 30.9272 41.4129 31 41.0483 31ZM40.315 30.7017H41.0288C41.3413 30.7017 41.6029 30.6402 41.8136 30.517C42.0243 30.3939 42.1823 30.2182 42.2876 29.9897C42.393 29.7612 42.4457 29.489 42.4457 29.1729C42.4445 28.8593 42.3924 28.5894 42.2894 28.3633C42.1876 28.1372 42.0361 27.9638 41.8349 27.843C41.6348 27.7223 41.3874 27.6619 41.0927 27.6619H40.315V30.7017ZM43.3718 31V27.3636H45.4812V27.6619H43.7039V29.0309H45.3693V29.3292H43.7039V30.7017H45.5167V31H43.3718ZM46.1459 27.3636L47.2823 30.5685H47.3142L48.4506 27.3636H48.7986L47.4758 31H47.1207L45.7979 27.3636H46.1459ZM49.2218 31V27.3636H51.3312V27.6619H49.5539V29.0309H51.2193V29.3292H49.5539V30.7017H51.3667V31H49.2218ZM51.9906 31V27.3636H52.3226V30.7017H54.0556V31H51.9906ZM57.4426 29.1818C57.4426 29.5606 57.3752 29.8903 57.2402 30.1708C57.1053 30.4502 56.9194 30.6668 56.6827 30.8207C56.4471 30.9734 56.1761 31.0497 55.8695 31.0497C55.5629 31.0497 55.2913 30.9734 55.0545 30.8207C54.819 30.6668 54.6337 30.4502 54.4988 30.1708C54.365 29.8903 54.2981 29.5606 54.2981 29.1818C54.2981 28.803 54.365 28.474 54.4988 28.1946C54.6337 27.9141 54.8195 27.6974 55.0563 27.5447C55.293 27.3909 55.5641 27.3139 55.8695 27.3139C56.1761 27.3139 56.4471 27.3909 56.6827 27.5447C56.9194 27.6974 57.1053 27.9141 57.2402 28.1946C57.3752 28.474 57.4426 28.803 57.4426 29.1818ZM57.1195 29.1818C57.1195 28.8563 57.065 28.5775 56.9561 28.3455C56.8472 28.1123 56.6987 27.9342 56.5105 27.8111C56.3223 27.688 56.1086 27.6264 55.8695 27.6264C55.6316 27.6264 55.4185 27.688 55.2303 27.8111C55.0421 27.9342 54.8929 28.1117 54.7828 28.3438C54.6739 28.5758 54.6195 28.8551 54.6195 29.1818C54.6195 29.5073 54.6739 29.7861 54.7828 30.0181C54.8917 30.2501 55.0403 30.4283 55.2285 30.5526C55.4167 30.6757 55.6304 30.7372 55.8695 30.7372C56.1086 30.7372 56.3223 30.6757 56.5105 30.5526C56.6999 30.4295 56.849 30.2519 56.9579 30.0199C57.0668 29.7867 57.1207 29.5073 57.1195 29.1818ZM58.0456 31V27.3636H59.2193C59.4773 27.3636 59.6928 27.4134 59.8656 27.5128C60.0396 27.611 60.1704 27.7448 60.258 27.9141C60.3468 28.0833 60.3912 28.2739 60.3912 28.4858C60.3912 28.6977 60.3474 28.8888 60.2598 29.0593C60.1722 29.2286 60.042 29.3629 59.8692 29.4624C59.6963 29.5606 59.4815 29.6097 59.2246 29.6097H58.3013V29.3114H59.2157C59.4063 29.3114 59.5644 29.2759 59.6898 29.2049C59.8153 29.1327 59.9088 29.0344 59.9704 28.9102C60.0331 28.7859 60.0645 28.6444 60.0645 28.4858C60.0645 28.3272 60.0331 28.1857 59.9704 28.0614C59.9088 27.9371 59.8147 27.8395 59.688 27.7685C59.5626 27.6974 59.4034 27.6619 59.2104 27.6619H58.3777V31H58.0456ZM60.9706 31V27.3636H63.08V27.6619H61.3027V29.0309H62.9682V29.3292H61.3027V30.7017H63.1155V31H60.9706ZM63.7394 31V27.3636H64.9131C65.1711 27.3636 65.3865 27.4104 65.5594 27.5039C65.7334 27.5962 65.8642 27.7247 65.9518 27.8892C66.0405 28.0526 66.0849 28.2402 66.0849 28.4521C66.0849 28.6639 66.0405 28.851 65.9518 29.0131C65.8642 29.1753 65.734 29.302 65.5611 29.3931C65.3883 29.4843 65.1741 29.5298 64.9184 29.5298H63.9187V29.2262H64.9095C65.0989 29.2262 65.2563 29.1948 65.3818 29.1321C65.5085 29.0694 65.6026 28.98 65.6641 28.864C65.7269 28.748 65.7582 28.6107 65.7582 28.4521C65.7582 28.2934 65.7269 28.1549 65.6641 28.0366C65.6014 27.917 65.5067 27.8247 65.38 27.7596C65.2546 27.6945 65.0959 27.6619 64.9042 27.6619H64.0714V31H63.7394ZM65.3427 29.3594L66.2376 31H65.8541L64.9681 29.3594H65.3427Z" fill="black"/>
</svg>
